<svg width="50" height="50" viewBox="0 0 50 50" fill="none" xmlns="http://www.w3.org/2000/svg">
<circle opacity="0.5" cx="22.8378" cy="26.8378" r="17.8378" fill="url(#paint0_linear_88_7523)"/>
<circle cx="22.72" cy="27.1184" r="10.1516" fill="url(#paint1_linear_88_7523)"/>
<path d="M28.5863 28.0002H23C22.7348 28.0002 22.4804 27.8948 22.2929 27.7073C22.1054 27.5197 22 27.2654 22 27.0002V21.4139C22.0001 21.149 22.1053 20.8951 22.2925 20.7077L37.7075 5.29266C37.895 5.10527 38.1493 5 38.4144 5C38.6795 5 38.9337 5.10527 39.1213 5.29266L44.7075 10.8752C44.8949 11.0627 45.0002 11.3169 45.0002 11.582C45.0002 11.8471 44.8949 12.1014 44.7075 12.2889L29.2925 27.7077C29.1051 27.8948 28.8511 28 28.5863 28.0002Z" stroke="#051028" stroke-width="1.5" stroke-linecap="round" stroke-linejoin="round"/>
<path d="M34 9L41 16" stroke="#051028" stroke-width="1.5" stroke-linecap="round" stroke-linejoin="round"/>
<defs>
<linearGradient id="paint0_linear_88_7523" x1="22.8378" y1="9" x2="22.8378" y2="44.6757" gradientUnits="userSpaceOnUse">
<stop stop-color="#2FB2E5"/>
<stop offset="1" stop-color="#B3E0F2" stop-opacity="0.2"/>
</linearGradient>
<linearGradient id="paint1_linear_88_7523" x1="22.72" y1="16.9668" x2="22.72" y2="37.27" gradientUnits="userSpaceOnUse">
<stop stop-color="#2FB2E5"/>
<stop offset="1" stop-color="#B3E0F2" stop-opacity="0.2"/>
</linearGradient>
</defs>
</svg>
